<?xml version="1.0" encoding="UTF-8" standalone="no"?>
<svg
   xmlns:dc="http://purl.org/dc/elements/1.1/"
   xmlns:cc="http://creativecommons.org/ns#"
   xmlns:rdf="http://www.w3.org/1999/02/22-rdf-syntax-ns#"
   xmlns:svg="http://www.w3.org/2000/svg"
   xmlns="http://www.w3.org/2000/svg"
   width="55.217468mm"
   height="53.60918mm"
   viewBox="0 0 55.217468 53.60918"
   version="1.1"
   id="svg8">
  <defs
     id="defs2" />
  <metadata
     id="metadata5">
    <rdf:RDF>
      <cc:Work
         rdf:about="">
        <dc:format>image/svg+xml</dc:format>
        <dc:type
           rdf:resource="http://purl.org/dc/dcmitype/StillImage" />
        <dc:title></dc:title>
      </cc:Work>
    </rdf:RDF>
  </metadata>
  <g
     id="layer2">
    <path
       id="path258"
       style="display:inline;fill:${color};fill-opacity:1;fill-rule:nonzero;stroke:none;stroke-width:0.0352778"
       d="m 97.084409,117.93024 c -5.082819,0 -9.202911,-4.12045 -9.202911,-9.20292 0,-5.08282 4.120092,-9.20291 9.202911,-9.20291 5.082471,0 9.202921,4.12009 9.202921,9.20291 0,5.08247 -4.12045,9.20292 -9.202921,9.20292 z m 27.055941,-17.43075 c -1.91664,-5.8981 -8.25182,-9.12637 -14.15027,-7.20972 -0.65899,0.21413 -1.27917,0.49141 -1.86831,0.80891 0.1203,-0.65828 0.19227,-1.3335 0.19227,-2.0267 0,-6.20219 -5.02779,-11.22963 -11.229631,-11.22963 -6.202183,0 -11.22962,5.02744 -11.22962,11.22963 0,0.6932 0.07161,1.36842 0.191911,2.0267 -0.589139,-0.3175 -1.208969,-0.59478 -1.868311,-0.80891 -5.898445,-1.91665 -12.233629,1.31162 -14.15027,7.20972 -1.916289,5.89844 1.311628,12.23398 7.210072,14.15027 0.658989,0.21413 1.323623,0.35454 1.986845,0.44379 -0.484011,0.46214 -0.939095,0.96626 -1.346553,1.52682 -3.645606,5.01756 -2.533297,12.04031 2.484261,15.68556 5.017559,3.64561 12.040307,2.5333 15.685555,-2.48426 0.40746,-0.56092 0.74613,-1.14935 1.03611,-1.7526 0.28963,0.60325 0.6283,1.19168 1.03576,1.7526 3.645601,5.01756 10.668351,6.12987 15.685561,2.48426 5.01756,-3.64525 6.12987,-10.668 2.48461,-15.68556 -0.40746,-0.56056 -0.86254,-1.06468 -1.3469,-1.52682 0.66322,-0.0892 1.32785,-0.22966 1.98719,-0.44379 5.8981,-1.91629 9.12637,-8.25183 7.20972,-14.15027"
       transform="translate(-69.47557,-80.84235)" />
  </g>
</svg>
